<svg width="55" height="56" viewBox="0 0 55 56" fill="none" xmlns="http://www.w3.org/2000/svg">
<path d="M33.9286 25.1125C33.9286 30.0746 29.8906 34.1125 24.9286 34.1125C19.9665 34.1125 15.9286 30.0746 15.9286 25.1125C15.9286 20.1505 19.9665 16.1125 24.9286 16.1125C29.8906 16.1125 33.9286 20.1505 33.9286 25.1125ZM44.2143 41.8268C44.2143 41.1438 43.933 40.4808 43.471 40.0188L36.5803 33.1282C38.2076 30.7777 39.0714 27.9652 39.0714 25.1125C39.0714 17.2978 32.7433 10.9697 24.9286 10.9697C17.1138 10.9697 10.7857 17.2978 10.7857 25.1125C10.7857 32.9273 17.1138 39.2554 24.9286 39.2554C27.7812 39.2554 30.5937 38.3915 32.9442 36.7643L39.8348 43.6348C40.2969 44.117 40.9598 44.3982 41.6429 44.3982C43.0491 44.3982 44.2143 43.2331 44.2143 41.8268Z" fill="white"/>
</svg>
