<?xml version="1.0" encoding="utf-8"?>
<!-- Generator: Adobe Illustrator 16.0.0, SVG Export Plug-In . SVG Version: 6.00 Build 0)  -->
<!DOCTYPE svg PUBLIC "-//W3C//DTD SVG 1.1//EN" "http://www.w3.org/Graphics/SVG/1.1/DTD/svg11.dtd">
<svg version="1.1" id="Шар_1" xmlns="http://www.w3.org/2000/svg" xmlns:xlink="http://www.w3.org/1999/xlink" x="0px" y="0px"
	 width="20px" height="20px" viewBox="0 0 20 20" enable-background="new 0 0 20 20" xml:space="preserve">
<g>
	<g>
		<path fill-rule="evenodd" clip-rule="evenodd" fill="#FFFFFF" d="M12.748,16v-1h6v1H12.748z M12.748,13h6v1h-6V13z M16.748,18h-4
			v-1h4V18z"/>
	</g>
	<g>
		<path fill-rule="evenodd" clip-rule="evenodd" fill="#FFFFFF" d="M13.748,9.975v-3h-4v-1c0-1.104,0.896-2,2-2h2v-2.95h-2l0,0
			c-2.799,0.256-5,2.583-5,5.45c0,0.017,0.005,0.032,0.005,0.049H6.748v0.451h-3v3h3v1.299v6.701h3v-6.627V9.975h3H13.748z"/>
	</g>
</g>
</svg>
