<?xml version="1.0" encoding="utf-8"?>
<!-- Svg Vector Icons : http://www.onlinewebfonts.com/icon -->
<!DOCTYPE svg PUBLIC "-//W3C//DTD SVG 1.1//EN" "http://www.w3.org/Graphics/SVG/1.1/DTD/svg11.dtd">
<svg version="1.1" xmlns="http://www.w3.org/2000/svg" xmlns:xlink="http://www.w3.org/1999/xlink" x="0px" y="0px" viewBox="0 0 1000 1000" enable-background="new 0 0 1000 1000" xml:space="preserve">
<metadata> Svg Vector Icons : http://www.onlinewebfonts.com/icon </metadata>
<g><path d="M989.6,103.9c-8.2-40.7-44.2-71.3-87.3-71.3H855v-0.4l-621.5,0.3c-24.6,0-44.6,19.9-44.6,44.5c0,24.6,20,44.5,44.6,44.5l667.1-0.4l0.4,445.8c0,24.6,19.9,44.5,44.5,44.5c24.6,0,44.6-19.9,44.6-44.5L989.6,103.9z"/><path d="M856.4,241.8c-6.4-42.7-42.9-75.5-87.4-75.7l-673.9,0.4C48,168.5,10.3,206.9,10,254.5l0.4,449.2c2.1,47.3,40.8,85,88.7,85h47.3v0.2l131.5-0.2c24.6,0,44.6-19.9,44.6-44.5s-20-44.5-44.6-44.5l-93.5,0.2l4.9-0.2c-72.9,0-87.1-0.7-89.8-42.4l-0.3-346.8c1.4-44.8,9.8-53.7,57.8-55.2l542-0.3c60.5,0.6,67.9,7.6,68.5,74.5l0.2,145.4c0,0.6-0.3,1.1-0.3,1.8l0.2,153.3c-0.6,71.2-7.6,69.8-89,69.8l4.3,0.1l-226.6,0.3c-0.3,0-0.5,0-0.7,0h-1.1c-14,0-26.1,6.9-34.2,17.1L244,891.8c-17.4,17.4-17.4,45.5,0,62.9c17.4,17.4,45.6,17.4,63,0l167.1-165.6l247.2-0.3v-0.1h47.3c45.8,0,83-34.6,88.1-78.9l-0.3-185.2c0-0.6,0.4-1.1,0.4-1.7L856.4,241.8z"/></g>
</svg>